# xmcd
#
# Track frame offsets:
#       150
#       9437
#       19195
#       31585
#       45002
#       52740
#       61895
#       71615
#       81595
#       92535
#       100690
#       109875
#       121472
#       132852
#       146222
#       156620
#       165910
#       175570
#
# Disc length: 2480 seconds
#
# Revision: 2
# Processed by: cddbd v1.5PL3 Copyright (c) Steve Scherf et al.
# Submitted via: CD-DA_X-Tractor v0.24
#
DISCID=db09ae12
DTITLE=The Ventures - The Very Best Of The Ventures
DYEAR=1900
DGENRE=
TTITLE0=Walk Don't Run
TTITLE1=Out Of Limits
TTITLE2=Tequila
TTITLE3=Apache
TTITLE4=Ram-Bunk-Shush
TTITLE5=Raunchy
TTITLE6=Never On Sunday
TTITLE7=Percolator
TTITLE8=Memphis Tennessee
TTITLE9=Hawaii Five-0
TTITLE10=Perfidia
TTITLE11=Telstar
TTITLE12=Rebel Rouser
TTITLE13=Wipe-out
TTITLE14=Let's Go
TTITLE15=Calcutta
TTITLE16=The Lonely Bull
TTITLE17=Pipline
EXTD=
EXTT0=
EXTT1=
EXTT2=
EXTT3=
EXTT4=
EXTT5=
EXTT6=
EXTT7=
EXTT8=
EXTT9=
EXTT10=
EXTT11=
EXTT12=
EXTT13=
EXTT14=
EXTT15=
EXTT16=
EXTT17=
PLAYORDER=
